<?xml version="1.0" encoding="utf-8"?>
<!-- Generator: Adobe Illustrator 16.0.0, SVG Export Plug-In . SVG Version: 6.00 Build 0)  -->
<!DOCTYPE svg PUBLIC "-//W3C//DTD SVG 1.1//EN" "http://www.w3.org/Graphics/SVG/1.1/DTD/svg11.dtd">
<svg version="1.1" id="图层_1" xmlns="http://www.w3.org/2000/svg" xmlns:xlink="http://www.w3.org/1999/xlink" x="0px" y="0px"
	 width="500px" height="500px" viewBox="0 0 500 500" enable-background="new 0 0 500 500" xml:space="preserve">
<g>
	<path id="XMLID_956_" opacity="0.38" fill="#FFFFFF" enable-background="new    " d="M455.157,313.665l-2.183,2.203l1.966,2.931
		c-1.307,1.642-2.319,3.436-3.042,5.317l-3.507-0.265l-0.79,3l3.17,1.556c-0.302,2.03-0.291,4.098,0.026,6.125l-3.172,1.526
		l0.816,2.992l3.521-0.237c0.738,1.878,1.769,3.668,3.093,5.299l-1.939,2.947l2.203,2.184l2.889-2.008
		c1.641,1.305,3.438,2.316,5.318,3.04l-0.206,3.52l3.001,0.788l1.498-3.184c2.028,0.3,4.097,0.291,6.125-0.028l1.582,3.154
		l2.993-0.814l-0.296-3.506c1.875-0.74,3.663-1.77,5.29-3.091l2.948,1.939l2.185-2.203l-2.011-2.889
		c1.308-1.642,2.318-3.438,3.041-5.319l3.521,0.206l0.79-3l-3.184-1.498c0.299-2.03,0.288-4.097-0.029-6.126l3.153-1.582
		l-0.814-2.992l-3.506,0.297c-0.739-1.875-1.766-3.659-3.084-5.286l1.982-2.905l-2.204-2.184l-2.931,1.966
		c-1.639-1.306-3.437-2.318-5.318-3.043l0.264-3.505l-2.999-0.792l-1.555,3.17c-2.029-0.3-4.097-0.292-6.124,0.026l-1.527-3.171
		l-2.993,0.816l0.237,3.519c-1.875,0.738-3.661,1.769-5.291,3.088L455.157,313.665z M457.482,320.696l8.951,8.873
		c-0.476,1.144-0.482,2.432-0.021,3.578l-8.893,8.972C452.475,335.897,452.452,326.942,457.482,320.696z M460.173,344.744
		l8.891-8.97c1.149,0.448,2.439,0.431,3.579-0.057l8.951,8.872C475.395,349.68,466.438,349.736,460.173,344.744z M484.203,341.924
		l-8.993-8.911c0.402-1.097,0.387-2.308-0.05-3.393l8.891-8.972C489.061,326.822,489.117,335.686,484.203,341.924z M481.402,318.023
		l-8.892,8.971c-1.088-0.427-2.302-0.431-3.394-0.02l-8.992-8.911C466.318,313.093,475.183,313.071,481.402,318.023z"/>
	<path id="XMLID_948_" fill="#FFFFFF" d="M15.922,205.891l-2.856,2.883l2.574,3.835c-1.709,2.146-3.037,4.497-3.981,6.958
		l-4.588-0.345l-1.035,3.927l4.148,2.035c-0.395,2.657-0.383,5.361,0.034,8.015l-4.15,1.998l1.069,3.916l4.606-0.311
		c0.967,2.457,2.314,4.8,4.047,6.934l-2.539,3.858l2.884,2.858l3.779-2.63c2.148,1.708,4.498,3.033,6.962,3.978l-0.271,4.607
		l3.927,1.032l1.959-4.166c2.658,0.393,5.362,0.379,8.018-0.037l2.071,4.128l3.916-1.068l-0.386-4.587
		c2.453-0.968,4.792-2.314,6.923-4.043l3.857,2.539l2.857-2.884l-2.629-3.781c1.71-2.147,3.033-4.498,3.979-6.961l4.606,0.27
		l1.032-3.925l-4.164-1.959c0.391-2.659,0.377-5.364-0.04-8.018l4.127-2.07l-1.067-3.917l-4.587,0.386
		c-0.967-2.452-2.31-4.787-4.037-6.916l2.596-3.804l-2.884-2.857l-3.835,2.574c-2.146-1.71-4.494-3.034-6.958-3.982l0.344-4.588
		l-3.927-1.034l-2.033,4.147c-2.658-0.393-5.362-0.382-8.015,0.034l-1.999-4.15l-3.918,1.069l0.314,4.605
		c-2.456,0.966-4.793,2.313-6.925,4.04L15.922,205.891z M18.966,215.093l11.715,11.609c-0.625,1.496-0.633,3.185-0.029,4.685
		l-11.635,11.739C12.412,234.985,12.382,223.265,18.966,215.093z M22.486,246.563l11.633-11.74c1.506,0.59,3.195,0.565,4.685-0.072
		l11.715,11.611C42.405,253.02,30.686,253.094,22.486,246.563z M53.934,242.873l-11.77-11.664c0.527-1.433,0.507-3.021-0.065-4.44
		l11.636-11.74C60.29,223.111,60.364,234.708,53.934,242.873z M50.267,211.594l-11.633,11.74c-1.424-0.56-3.012-0.564-4.44-0.024
		l-11.77-11.664C30.53,205.141,42.129,205.113,50.267,211.594z"/>
	<path id="XMLID_938_" fill="#FFFFFF" d="M273.687,347.706l-3.508,3.542l3.16,4.708c-2.1,2.638-3.729,5.523-4.89,8.547l-5.634-0.422
		l-1.271,4.822l5.094,2.499c-0.482,3.264-0.47,6.584,0.043,9.844l-5.097,2.455l1.312,4.809l5.658-0.383
		c1.188,3.017,2.842,5.896,4.971,8.517l-3.118,4.738l3.542,3.51l4.642-3.229c2.64,2.097,5.523,3.726,8.55,4.885l-0.332,5.659
		l4.823,1.268l2.407-5.115c3.266,0.48,6.584,0.466,9.846-0.046l2.545,5.069l4.811-1.313l-0.475-5.633
		c3.012-1.19,5.887-2.843,8.502-4.968l4.738,3.12l3.51-3.543l-3.229-4.642c2.101-2.64,3.726-5.524,4.888-8.551l5.657,0.329
		l1.269-4.818l-5.115-2.406c0.48-3.268,0.464-6.587-0.049-9.848l5.07-2.543l-1.311-4.813l-5.635,0.478
		c-1.188-3.013-2.836-5.88-4.957-8.495l3.188-4.671l-3.543-3.512l-4.71,3.161c-2.636-2.099-5.521-3.727-8.547-4.89l0.423-5.635
		l-4.822-1.271l-2.496,5.094c-3.265-0.482-6.586-0.468-9.845,0.044l-2.456-5.098l-4.811,1.313l0.384,5.654
		c-3.015,1.188-5.886,2.842-8.505,4.962L273.687,347.706z M277.425,359.009l14.389,14.259c-0.767,1.838-0.776,3.911-0.033,5.755
		l-14.29,14.418C269.376,383.44,269.339,369.047,277.425,359.009z M281.748,397.659l14.289-14.418
		c1.849,0.724,3.923,0.692,5.753-0.089l14.389,14.261C306.213,405.589,291.82,405.682,281.748,397.659z M320.372,393.128
		l-14.455-14.325c0.646-1.761,0.623-3.709-0.079-5.453l14.29-14.419C328.181,368.855,328.271,383.1,320.372,393.128z
		 M315.869,354.712l-14.288,14.418c-1.748-0.688-3.7-0.691-5.453-0.028l-14.456-14.326
		C291.628,346.785,305.873,346.751,315.869,354.712z"/>
	<g id="XMLID_842_" opacity="0.45">
		<g id="XMLID_853_">
			<g id="XMLID_932_">
				<path id="XMLID_933_" fill="#FFFFFF" d="M214.646,232.894l-21.215-0.372l0.011-0.327c0.185-5.419,0.889-10.811,2.091-16.025
					c0.422-1.829,0.921-3.694,1.485-5.543c1.562-5.151,3.651-10.2,6.208-14.999c0.918-1.72,1.885-3.392,2.872-4.971
					c2.862-4.58,6.188-8.911,9.888-12.869c1.271-1.364,2.634-2.732,4.053-4.066c3.951-3.692,8.281-7.021,12.87-9.893
					c1.602-1.003,3.272-1.97,4.962-2.873c4.792-2.562,9.837-4.657,14.994-6.229c1.825-0.554,3.69-1.056,5.543-1.49
					c5.226-1.207,10.641-1.914,16.098-2.098l0.326-0.012l0.372,21.216l-0.314,0.012c-3.852,0.152-7.697,0.657-11.432,1.504
					c-1.602,0.358-3.193,0.785-4.732,1.266c-3.635,1.129-7.215,2.621-10.645,4.432c-1.449,0.77-2.874,1.597-4.234,2.456
					c-3.238,2.051-6.311,4.419-9.135,7.037c-1.178,1.091-2.34,2.257-3.453,3.467c-2.596,2.804-4.957,5.883-7.018,9.148
					c-0.886,1.417-1.708,2.845-2.443,4.241c-1.798,3.42-3.281,7.005-4.408,10.656c-0.467,1.515-0.889,3.108-1.254,4.733
					c-0.829,3.669-1.325,7.466-1.478,11.284L214.646,232.894z M194.096,231.89l19.933,0.35c0.167-3.751,0.665-7.479,1.48-11.086
					c0.367-1.641,0.794-3.25,1.267-4.782c1.139-3.687,2.636-7.31,4.453-10.765c0.742-1.411,1.573-2.852,2.467-4.284
					c2.083-3.3,4.469-6.409,7.09-9.242c1.125-1.222,2.299-2.401,3.49-3.503c2.85-2.644,5.956-5.035,9.227-7.106
					c1.374-0.871,2.813-1.705,4.277-2.481c3.465-1.831,7.082-3.337,10.754-4.479c1.556-0.486,3.165-0.917,4.783-1.279
					c3.668-0.832,7.447-1.338,11.231-1.505l-0.35-19.934c-5.306,0.2-10.566,0.896-15.646,2.07c-1.839,0.431-3.69,0.929-5.502,1.479
					c-5.118,1.559-10.124,3.638-14.879,6.18c-1.678,0.896-3.335,1.855-4.925,2.85c-4.553,2.851-8.85,6.154-12.771,9.819
					c-1.407,1.323-2.761,2.68-4.021,4.034c-3.671,3.929-6.972,8.226-9.813,12.772c-0.979,1.566-1.938,3.225-2.85,4.931
					c-2.537,4.764-4.61,9.771-6.161,14.884c-0.558,1.836-1.054,3.687-1.473,5.502C194.99,221.384,194.296,226.623,194.096,231.89z"
					/>
			</g>
			<g id="XMLID_924_">
				<path id="XMLID_927_" fill="#FFFFFF" d="M338.563,292.713l-15.314-14.684l0.215-0.231c2.616-2.821,4.982-5.894,7.037-9.13
					c0.866-1.376,1.693-2.804,2.457-4.24c1.8-3.408,3.292-6.99,4.432-10.643c0.475-1.528,0.9-3.119,1.268-4.729
					c0.857-3.769,1.363-7.664,1.51-11.578l0.012-0.315l21.209,0.45l-0.01,0.326c-0.18,5.46-0.887,10.9-2.105,16.167
					c-0.42,1.822-0.92,3.688-1.482,5.545c-1.586,5.177-3.682,10.221-6.229,14.992c-0.879,1.647-1.85,3.318-2.879,4.963
					c-2.871,4.591-6.201,8.92-9.895,12.871L338.563,292.713z M324.149,278.002l14.39,13.797c3.576-3.855,6.804-8.072,9.597-12.531
					c1.021-1.635,1.982-3.293,2.856-4.927c2.528-4.733,4.606-9.739,6.179-14.878c0.563-1.842,1.057-3.691,1.475-5.5
					c1.185-5.123,1.883-10.41,2.076-15.719l-19.926-0.423c-0.162,3.845-0.67,7.673-1.513,11.38c-0.37,1.625-0.802,3.23-1.28,4.775
					c-1.15,3.691-2.656,7.31-4.479,10.752c-0.771,1.453-1.604,2.894-2.48,4.285C329.024,272.193,326.707,275.215,324.149,278.002z"
					/>
			</g>
			<g id="XMLID_918_">
				<path id="XMLID_919_" fill="#FFFFFF" d="M307.019,179.706l-0.278-0.148c-3.413-1.805-6.994-3.296-10.646-4.432l-0.301-0.094
					l5.85-20.398l0.313,0.096c5.17,1.577,10.214,3.671,14.992,6.225l0.287,0.153L307.019,179.706z M296.584,174.605
					c3.485,1.104,6.905,2.528,10.175,4.237l9.6-17.475c-4.561-2.414-9.359-4.406-14.276-5.928L296.584,174.605z"/>
			</g>
			<g id="XMLID_912_">
				<path id="XMLID_913_" fill="#FFFFFF" d="M291.672,173.926l-0.309-0.069c-3.771-0.855-7.667-1.363-11.579-1.51l-0.314-0.011
					l0.449-21.212l0.325,0.011c5.47,0.18,10.909,0.888,16.167,2.105l0.318,0.073L291.672,173.926z M280.125,171.718
					c3.737,0.157,7.46,0.642,11.073,1.443l4.751-19.367c-5.015-1.139-10.192-1.813-15.401-2.004L280.125,171.718z"/>
			</g>
			<g id="XMLID_906_">
				<path id="XMLID_907_" fill="#FFFFFF" d="M320.338,189.265l-0.231-0.214c-2.822-2.619-5.896-4.986-9.133-7.037l-0.264-0.167
					l10.928-18.189l0.277,0.173c4.582,2.868,8.91,6.197,12.865,9.895l0.236,0.222L320.338,189.265z M311.584,181.639
					c3.083,1.977,6.017,4.236,8.728,6.726l13.793-14.393c-3.78-3.505-7.899-6.673-12.252-9.422L311.584,181.639z"/>
			</g>
			<g id="XMLID_900_">
				<path id="XMLID_901_" fill="#FFFFFF" d="M337.524,216.865l-0.094-0.303c-1.129-3.657-2.61-7.242-4.406-10.655l-0.146-0.278
					l18.561-10.289l0.156,0.288c2.549,4.781,4.639,9.828,6.209,14.998l0.096,0.312L337.524,216.865z M333.74,205.887
					c1.698,3.27,3.114,6.693,4.211,10.184l19.144-5.568c-1.517-4.918-3.506-9.721-5.916-14.284L333.74,205.887z"/>
			</g>
			<g id="XMLID_894_">
				<path id="XMLID_895_" fill="#FFFFFF" d="M330.745,201.933l-0.167-0.267c-2.047-3.249-4.407-6.326-7.015-9.15l-0.213-0.231
					l15.264-14.739l0.223,0.24c3.695,3.958,7.021,8.29,9.885,12.874l0.172,0.276L330.745,201.933z M324.251,192.312
					c2.477,2.709,4.729,5.649,6.701,8.744l17.05-10.333c-2.743-4.354-5.907-8.476-9.412-12.26L324.251,192.312z"/>
			</g>
			<g id="XMLID_886_">
				<path id="XMLID_887_" fill="#FFFFFF" d="M233.242,306.581l-0.276-0.172c-4.589-2.867-8.921-6.19-12.875-9.88
					c-1.387-1.297-2.752-2.662-4.06-4.059c-3.701-3.961-7.029-8.289-9.894-12.863l-0.174-0.277l18.191-10.928l0.169,0.266
					c2.067,3.26,4.434,6.33,7.036,9.127c1.101,1.193,2.265,2.355,3.46,3.463c2.86,2.635,5.94,4.992,9.153,7.01l0.269,0.17
					L233.242,306.581z M206.856,279.544c2.802,4.437,6.046,8.638,9.645,12.486c1.297,1.387,2.652,2.743,4.029,4.028
					c3.843,3.588,8.048,6.825,12.5,9.633l10.334-17.047c-3.151-2.002-6.17-4.328-8.98-6.914c-1.207-1.119-2.383-2.293-3.496-3.496
					c-2.556-2.752-4.891-5.764-6.939-8.957L206.856,279.544z"/>
			</g>
			<g id="XMLID_880_">
				<path id="XMLID_881_" fill="#FFFFFF" d="M279.917,319.084l-0.451-21.217l0.316-0.012c3.869-0.146,7.717-0.641,11.438-1.478
					c1.629-0.364,3.223-0.787,4.732-1.254c3.654-1.128,7.238-2.61,10.65-4.408c1.408-0.737,2.838-1.562,4.246-2.446
					c3.235-2.037,6.313-4.396,9.147-7.013l0.231-0.213l14.737,15.261l-0.239,0.225c-3.968,3.701-8.299,7.025-12.875,9.88
					c-1.625,1.016-3.297,1.983-4.971,2.879c-4.761,2.541-9.807,4.63-14.992,6.209c-1.854,0.563-3.722,1.063-5.551,1.484
					c-5.232,1.202-10.65,1.905-16.097,2.091L279.917,319.084z M280.123,298.486l0.423,19.933c5.296-0.201,10.561-0.895,15.646-2.063
					c1.815-0.418,3.67-0.914,5.51-1.475c5.146-1.565,10.15-3.641,14.878-6.161c1.66-0.887,3.319-1.848,4.931-2.855
					c4.449-2.773,8.668-5.999,12.538-9.582l-13.847-14.339c-2.799,2.557-5.829,4.866-9.01,6.868
					c-1.424,0.896-2.867,1.729-4.291,2.476c-3.445,1.813-7.066,3.313-10.76,4.453c-1.527,0.47-3.137,0.897-4.781,1.267
					C287.703,297.828,283.923,298.325,280.123,298.486z"/>
			</g>
			<g id="XMLID_874_">
				<path id="XMLID_875_" fill="#FFFFFF" d="M274.831,319.079l-0.327-0.011c-5.419-0.187-10.81-0.888-16.024-2.087l-0.317-0.072
					l5.135-20.599l0.308,0.067c3.682,0.827,7.478,1.322,11.283,1.474l0.314,0.013L274.831,319.079z M258.942,316.427
					c4.97,1.123,10.1,1.791,15.257,1.987l0.349-19.934c-3.634-0.162-7.257-0.635-10.779-1.405L258.942,316.427z"/>
			</g>
			<g id="XMLID_868_">
				<path id="XMLID_869_" fill="#FFFFFF" d="M203.412,274.923l-0.153-0.286c-2.561-4.801-4.654-9.846-6.222-14.994
					c-0.589-1.931-1.077-3.744-1.491-5.543c-1.21-5.229-1.918-10.667-2.104-16.167l-0.011-0.325l21.215-0.451l0.012,0.315
					c0.145,3.903,0.652,7.801,1.503,11.584c0.372,1.631,0.801,3.221,1.273,4.727c1.134,3.654,2.625,7.236,4.433,10.645l0.148,0.279
					L203.412,274.923z M194.096,238.236c0.201,5.346,0.899,10.632,2.076,15.719c0.41,1.785,0.895,3.583,1.479,5.5
					c1.524,5.007,3.55,9.912,6.022,14.59l17.479-9.598c-1.76-3.358-3.217-6.881-4.332-10.475c-0.477-1.52-0.91-3.127-1.285-4.774
					c-0.839-3.722-1.345-7.55-1.506-11.386L194.096,238.236z"/>
			</g>
			<g id="XMLID_862_">
				<path id="XMLID_863_" fill="#FFFFFF" d="M340.172,232.894l-0.013-0.314c-0.15-3.806-0.645-7.603-1.473-11.284l-0.067-0.306
					l20.597-5.135l0.073,0.319c1.2,5.211,1.901,10.601,2.087,16.023l0.01,0.328L340.172,232.894z M339.384,221.461
					c0.771,3.522,1.244,7.145,1.405,10.778l19.933-0.348c-0.195-5.161-0.863-10.29-1.985-15.257L339.384,221.461z"/>
			</g>
			<g id="XMLID_854_">
				<path id="XMLID_855_" fill="#FFFFFF" d="M253.246,315.592l-0.312-0.095c-5.172-1.572-10.22-3.661-15-6.212l-0.289-0.153
					l10.289-18.562l0.279,0.146c3.412,1.795,6.996,3.277,10.654,4.405l0.303,0.094L253.246,315.592z M238.527,308.872
					c4.561,2.408,9.363,4.396,14.283,5.913l5.567-19.143c-3.491-1.098-6.914-2.513-10.184-4.211L238.527,308.872z"/>
			</g>
		</g>
		<path id="XMLID_843_" fill="#FFFFFF" d="M371.705,156.582l-11.121-11.661l-15.509,9.781c-8.331-7.029-17.508-12.557-27.171-16.587
			l1.885-18.169l-15.469-4.548l-8.542,16.231c-10.504-1.864-21.235-2.123-31.816-0.769l-7.462-16.695l-15.661,3.799l0.716,18.315
			c-9.86,3.563-19.311,8.643-27.978,15.284l-15.027-10.515l-11.666,11.124l10.008,15.297c-7.019,8.333-12.547,17.506-16.572,27.18
			l-18.257-1.596l-4.537,15.472l16.314,8.247c-1.855,10.506-2.109,21.239-0.755,31.826l-16.617,7.752l3.796,15.666L178.511,271
			c3.567,9.846,8.647,19.281,15.271,27.934l-10.516,15.022l11.125,11.668l15.3-10.011c8.33,7.027,17.509,12.547,27.182,16.577
			l-1.59,18.254l15.462,4.54l8.248-16.312c10.509,1.855,21.24,2.104,31.822,0.749l7.752,16.617l15.666-3.794l-1.014-18.247
			c9.84-3.563,19.258-8.627,27.902-15.242l14.805,10.732l11.664-11.123l-9.779-15.514c7.025-8.324,12.549-17.5,16.586-27.17
			l18.174,1.883l4.546-15.465l-16.229-8.537c1.859-10.505,2.119-21.239,0.767-31.816l16.694-7.466l-3.8-15.669l-18.313,0.724
			c-3.563-9.854-8.638-19.284-15.253-27.941L371.705,156.582z M334.839,167.624l-47.4,45.186c-5.866-2.645-12.566-2.871-18.59-0.638
			l-45.281-47.503C256.626,139.366,303.144,140.571,334.839,167.624z M209.539,178.044l45.28,47.497
			c-2.512,5.911-2.604,12.614-0.241,18.599l-47.406,45.188C181.668,256.372,182.691,209.854,209.539,178.044z M220.636,303.275
			l47.62-45.398c5.63,2.253,11.933,2.352,17.632,0.245l45.278,47.502C298.358,330.729,252.315,329.719,220.636,303.275z
			 M345.192,292.249l-45.281-47.495c2.381-5.587,2.577-11.892,0.597-17.62l47.622-45.396
			C373.03,214.64,371.837,260.682,345.192,292.249z"/>
	</g>
	<g id="XMLID_832_">
		<path id="XMLID_833_" fill="#FFFFFF" d="M436.643,239.583l-5.91-0.56l-0.547-6.199c-3.429-0.726-6.719-1.949-9.79-3.637
			l-4.463,4.333l-4.838-3.44l2.539-5.702c-2.602-2.346-4.843-5.054-6.666-8.056l-6.035,1.521l-2.473-5.397l5.047-3.665
			c-1.085-3.337-1.672-6.805-1.744-10.314l-5.986-1.7l0.561-5.908l6.205-0.652c0.729-3.434,1.952-6.731,3.643-9.806l-4.33-4.464
			l3.437-4.837l5.702,2.54c2.352-2.604,5.061-4.846,8.059-6.669l-1.523-6.034l5.397-2.471l3.667,5.046
			c3.337-1.085,6.807-1.672,10.313-1.745l1.699-5.987l5.909,0.56l0.652,6.206c3.437,0.729,6.738,1.956,9.82,3.651l4.543-4.271
			l4.844,3.438l-2.627,5.644c2.604,2.35,4.843,5.059,6.665,8.058l6.075-1.424l2.474,5.395l-5.093,3.573
			c1.082,3.332,1.666,6.8,1.738,10.315l5.974,1.803l-0.559,5.91l-6.202,0.548c-0.729,3.437-1.955,6.733-3.646,9.804l4.271,4.545
			l-3.436,4.837l-5.648-2.623c-2.349,2.601-5.059,4.842-8.059,6.663l1.427,6.076l-5.399,2.47l-3.568-5.089
			c-3.341,1.083-6.809,1.667-10.316,1.737L436.643,239.583z M431.26,238.5l4.972,0.47l1.785-5.925l0.21-0.003
			c3.592-0.053,7.145-0.651,10.557-1.778l0.202-0.067l3.541,5.048l4.54-2.078l-1.415-6.025l0.179-0.108
			c3.083-1.848,5.857-4.143,8.248-6.82l0.141-0.158l5.602,2.603l2.889-4.069l-4.235-4.509l0.102-0.183
			c1.748-3.132,3.003-6.508,3.729-10.032l0.043-0.209l6.15-0.542l0.47-4.971l-5.925-1.789l-0.002-0.208
			c-0.055-3.6-0.652-7.15-1.781-10.555l-0.065-0.201l5.052-3.543l-2.082-4.538l-6.025,1.412l-0.106-0.18
			c-1.848-3.081-4.142-5.856-6.819-8.245l-0.159-0.142l2.604-5.597l-4.074-2.892l-4.505,4.235l-0.184-0.101
			c-3.146-1.753-6.526-3.009-10.047-3.734l-0.205-0.043l-0.646-6.155l-4.97-0.471l-1.688,5.938l-0.212,0.003
			c-3.593,0.052-7.143,0.652-10.554,1.783l-0.199,0.066l-3.635-5.005l-4.541,2.08l1.511,5.982l-0.184,0.109
			c-3.08,1.848-5.854,4.144-8.244,6.824l-0.141,0.156l-5.653-2.52l-2.894,4.07l4.297,4.425l-0.104,0.187
			c-1.749,3.137-3.003,6.513-3.729,10.033l-0.041,0.205l-6.154,0.646l-0.471,4.969l5.938,1.687l0.004,0.212
			c0.053,3.593,0.652,7.146,1.783,10.553l0.064,0.199l-5.006,3.635l2.079,4.541l5.984-1.51l0.108,0.182
			c1.853,3.086,4.146,5.859,6.823,8.245l0.155,0.139l-2.52,5.655l4.068,2.894l4.426-4.297l0.188,0.104
			c3.136,1.746,6.507,2.999,10.021,3.722l0.208,0.042L431.26,238.5z M437.718,228.036c-0.957,0-1.93-0.046-2.89-0.137
			c-16.656-1.576-28.929-16.408-27.354-33.065c0.717-7.566,4.211-14.54,9.844-19.636c5.594-5.063,12.813-7.852,20.324-7.852
			c0.962,0,1.936,0.046,2.896,0.137c8.069,0.763,15.358,4.623,20.525,10.866c5.165,6.245,7.591,14.127,6.827,22.196
			c-0.717,7.567-4.213,14.542-9.844,19.637C452.451,225.246,445.231,228.036,437.718,228.036z M437.642,167.917
			c-15.418,0-28.145,11.594-29.6,26.969c-1.543,16.344,10.497,30.897,26.84,32.443c0.941,0.088,1.896,0.135,2.836,0.135
			c15.421,0,28.147-11.597,29.604-26.973c0.749-7.917-1.631-15.652-6.699-21.779c-5.069-6.126-12.221-9.913-20.14-10.661
			C439.539,167.963,438.584,167.917,437.642,167.917z"/>
	</g>
	<g id="XMLID_821_">
		<path id="XMLID_827_" fill="#FFFFFF" d="M168.919,253.389l0.086-1.334l-2.156-0.589c-0.007-0.415-0.034-0.829-0.079-1.249
			c-0.046-0.417-0.112-0.828-0.194-1.234l1.971-1.059l-0.376-1.283l-2.225,0.183c-0.302-0.788-0.674-1.536-1.107-2.241l1.488-1.667
			l-0.792-1.078l-2.029,0.935c-0.548-0.63-1.154-1.207-1.806-1.725l0.829-2.078l-1.113-0.743l-1.587,1.572
			c-0.726-0.403-1.491-0.74-2.288-1.005l0.069-2.234l-1.3-0.318l-0.954,2.02c-0.812-0.127-1.646-0.184-2.493-0.159l-0.686-2.127
			l-1.329,0.146l-0.22,2.227c-0.832,0.161-1.634,0.397-2.398,0.699l-1.372-1.763l-1.199,0.593l0.555,2.166
			c-0.719,0.432-1.392,0.929-2.014,1.48l-1.892-1.187l-0.923,0.966l1.263,1.849c-0.524,0.647-0.987,1.343-1.386,2.077l-2.186-0.469
			l-0.538,1.225l1.817,1.301c-0.269,0.783-0.469,1.596-0.592,2.429l-2.212,0.307l-0.086,1.334l2.156,0.604
			c0.006,0.414,0.034,0.83,0.079,1.249c0.045,0.418,0.112,0.831,0.196,1.233l-1.977,1.046l0.375,1.284l2.228-0.172
			c0.303,0.789,0.675,1.537,1.109,2.24l-1.499,1.657l0.792,1.077l2.039-0.922c0.548,0.631,1.153,1.207,1.806,1.725l-0.842,2.071
			l1.113,0.741l1.599-1.564c0.728,0.403,1.494,0.742,2.29,1.007l-0.083,2.23l1.299,0.317l0.967-2.017
			c0.813,0.129,1.647,0.185,2.495,0.159l0.7,2.127l1.329-0.148l0.205-2.226c0.833-0.162,1.633-0.396,2.399-0.699l1.384,1.756
			l1.199-0.594l-0.567-2.157c0.718-0.435,1.392-0.931,2.014-1.482l1.902,1.181l0.923-0.97l-1.273-1.838
			c0.524-0.646,0.989-1.342,1.387-2.078l2.19,0.457l0.539-1.223l-1.823-1.291c0.27-0.781,0.469-1.596,0.592-2.43L168.919,253.389z
			 M154.314,261.484c-5.396,0.596-10.254-3.297-10.85-8.693c-0.597-5.396,3.295-10.255,8.692-10.852
			c5.396-0.596,10.255,3.297,10.851,8.694C163.603,256.031,159.712,260.887,154.314,261.484z"/>
		<path id="XMLID_822_" fill="#FFFFFF" d="M152.373,243.9c-4.314,0.477-7.426,4.36-6.949,8.674c0.476,4.314,4.36,7.428,8.674,6.951
			c4.316-0.479,7.427-4.361,6.949-8.676C160.572,246.535,156.688,243.423,152.373,243.9z M153.881,257.553
			c-3.227,0.356-6.129-1.971-6.485-5.195c-0.358-3.227,1.969-6.128,5.195-6.484c3.225-0.357,6.129,1.97,6.485,5.195
			C159.433,254.294,157.105,257.196,153.881,257.553z"/>
	</g>
	<g id="XMLID_799_">
		<g id="XMLID_811_">
			<path id="XMLID_814_" fill="#FFFFFF" d="M126.519,399.922l-9.827-0.928l-0.911-10.307c-5.696-1.209-11.168-3.24-16.275-6.047
				l-7.419,7.203l-8.043-5.72l4.223-9.479c-4.326-3.898-8.052-8.401-11.085-13.395l-10.034,2.531l-4.109-8.976l8.39-6.094
				c-1.804-5.547-2.778-11.313-2.899-17.146l-9.953-2.827l0.929-9.824l10.317-1.084c1.21-5.709,3.247-11.189,6.056-16.303l-7.2-7.42
				l5.716-8.045l9.48,4.223c3.906-4.328,8.41-8.057,13.396-11.087l-2.534-10.03l8.976-4.109l6.095,8.389
				c5.55-1.803,11.315-2.777,17.147-2.896l2.824-9.955l9.827,0.93l1.083,10.318c5.712,1.211,11.203,3.252,16.329,6.07l7.553-7.102
				l8.051,5.719l-4.365,9.383c4.328,3.904,8.053,8.411,11.079,13.396l10.101-2.367l4.114,8.972l-8.468,5.94
				c1.798,5.537,2.771,11.305,2.89,17.147l9.931,2.997l-0.927,9.825l-10.313,0.911c-1.213,5.716-3.25,11.195-6.06,16.302
				l7.101,7.557l-5.709,8.043l-9.39-4.362c-3.907,4.323-8.412,8.05-13.399,11.079l2.371,10.102l-8.976,4.107l-5.935-8.463
				c-5.553,1.801-11.318,2.771-17.152,2.89L126.519,399.922z M117.568,398.121l8.267,0.783l2.969-9.854l0.348-0.005
				c5.972-0.086,11.878-1.082,17.551-2.957l0.335-0.109l5.887,8.391l7.55-3.452l-2.353-10.02l0.297-0.18
				c5.125-3.072,9.739-6.888,13.712-11.339l0.235-0.265l9.312,4.327l4.803-6.767l-7.043-7.495l0.168-0.303
				c2.906-5.209,4.992-10.82,6.2-16.68l0.071-0.349l10.229-0.9l0.779-8.266l-9.851-2.973l-0.005-0.347
				c-0.088-5.987-1.083-11.89-2.959-17.549l-0.111-0.336l8.398-5.892l-3.46-7.546l-10.019,2.351l-0.178-0.297
				c-3.07-5.127-6.885-9.738-11.338-13.711l-0.264-0.234l4.329-9.307l-6.772-4.81l-7.491,7.044l-0.305-0.17
				c-5.23-2.916-10.851-5.005-16.703-6.209l-0.34-0.07l-1.074-10.234l-8.265-0.783l-2.803,9.873l-0.353,0.007
				c-5.972,0.086-11.875,1.083-17.546,2.965l-0.331,0.108l-6.045-8.322l-7.549,3.459l2.513,9.945l-0.303,0.182
				c-5.125,3.072-9.738,6.893-13.712,11.348l-0.23,0.258l-9.402-4.188l-4.808,6.766l7.141,7.358l-0.172,0.31
				c-2.905,5.218-4.992,10.829-6.197,16.682l-0.07,0.339l-10.233,1.077l-0.781,8.261l9.872,2.805l0.005,0.354
				c0.088,5.974,1.087,11.878,2.966,17.547l0.109,0.328l-8.323,6.044l3.458,7.549l9.951-2.509l0.181,0.302
				c3.076,5.129,6.893,9.741,11.344,13.708l0.259,0.23l-4.189,9.402l6.765,4.813l7.357-7.146l0.309,0.173
				c5.215,2.904,10.82,4.986,16.661,6.189l0.346,0.071L117.568,398.121z M128.308,380.723c-1.594,0-3.21-0.075-4.806-0.226
				c-27.692-2.621-48.095-27.282-45.48-54.976c1.192-12.58,7.004-24.174,16.365-32.646c9.302-8.417,21.305-13.057,33.794-13.057
				c1.596,0,3.215,0.08,4.813,0.229c13.418,1.271,25.536,7.685,34.125,18.066s12.621,23.487,11.354,36.903
				c-1.192,12.58-7.005,24.176-16.367,32.648C152.803,376.086,140.8,380.723,128.308,380.723z M128.181,280.77
				c-25.636,0-46.793,19.277-49.214,44.841c-2.566,27.173,17.452,51.369,44.624,53.939c1.566,0.146,3.152,0.225,4.716,0.225
				c25.638,0,46.797-19.279,49.219-44.846c1.243-13.165-2.713-26.022-11.14-36.208c-8.427-10.188-20.318-16.481-33.483-17.729
				C131.337,280.846,129.747,280.77,128.181,280.77z"/>
		</g>
		<g id="XMLID_800_">
			<path id="XMLID_806_" fill="#FFFFFF" d="M155.984,332.709l0.152-2.36l-3.814-1.041c-0.014-0.731-0.061-1.467-0.14-2.206
				c-0.083-0.741-0.2-1.47-0.345-2.187l3.488-1.872l-0.665-2.271l-3.936,0.325c-0.533-1.394-1.192-2.718-1.958-3.965l2.633-2.949
				l-1.4-1.904l-3.59,1.651c-0.971-1.112-2.043-2.137-3.196-3.052l1.467-3.678l-1.968-1.313l-2.809,2.781
				c-1.285-0.713-2.638-1.309-4.046-1.778l0.122-3.95l-2.3-0.563l-1.686,3.57c-1.438-0.227-2.912-0.323-4.41-0.28l-1.213-3.762
				l-2.351,0.258l-0.389,3.938c-1.47,0.287-2.89,0.703-4.242,1.237l-2.426-3.116l-2.122,1.049l0.981,3.829
				c-1.271,0.768-2.462,1.645-3.561,2.619l-3.346-2.101l-1.635,1.71l2.234,3.27c-0.927,1.146-1.747,2.376-2.451,3.676l-3.866-0.829
				l-0.951,2.164l3.215,2.305c-0.477,1.384-0.831,2.821-1.048,4.296l-3.912,0.541l-0.153,2.36l3.815,1.065
				c0.011,0.732,0.058,1.469,0.139,2.209c0.081,0.74,0.199,1.47,0.345,2.187l-3.495,1.849l0.664,2.271l3.941-0.303
				c0.536,1.396,1.194,2.719,1.961,3.965l-2.649,2.932l1.4,1.906l3.606-1.635c0.97,1.114,2.041,2.137,3.194,3.052l-1.488,3.665
				l1.967,1.313l2.829-2.77c1.286,0.713,2.641,1.311,4.048,1.779l-0.145,3.946l2.298,0.561l1.71-3.565
				c1.438,0.229,2.914,0.325,4.413,0.282l1.237,3.762l2.353-0.261l0.362-3.938c1.472-0.285,2.89-0.7,4.244-1.237l2.448,3.107
				l2.12-1.05l-1.003-3.819c1.271-0.764,2.464-1.643,3.563-2.619l3.364,2.084l1.634-1.711l-2.253-3.25
				c0.926-1.146,1.749-2.376,2.453-3.677l3.874,0.807l0.952-2.165l-3.223-2.279c0.477-1.383,0.83-2.821,1.046-4.297L155.984,332.709
				z M130.149,347.03c-9.543,1.054-18.138-5.83-19.191-15.377c-1.058-9.545,5.83-18.141,15.375-19.194
				c9.545-1.057,18.14,5.829,19.196,15.376C146.581,337.382,139.698,345.975,130.149,347.03z"/>
			<path id="XMLID_801_" fill="#FFFFFF" d="M126.714,315.925c-7.63,0.845-13.134,7.714-12.292,15.345
				c0.842,7.634,7.712,13.137,15.344,12.293c7.633-0.844,13.137-7.712,12.293-15.345
				C141.218,320.586,134.347,315.083,126.714,315.925z M129.384,340.074c-5.708,0.631-10.842-3.483-11.472-9.188
				c-0.633-5.707,3.483-10.844,9.19-11.473c5.705-0.632,10.84,3.483,11.472,9.19C139.204,334.309,135.088,339.444,129.384,340.074z"
				/>
		</g>
	</g>
	<path id="XMLID_794_" fill="#FFFFFF" d="M239.107,207.911l0.536-5.679l-6.21-1.875c-0.057-3.855-0.707-7.589-1.872-11.107
		l5.293-3.714l-2.376-5.185l-6.318,1.481c-1.939-3.237-4.359-6.165-7.176-8.678l2.729-5.868l-4.654-3.305l-4.724,4.44
		c-3.245-1.809-6.791-3.151-10.572-3.929l-0.678-6.454l-5.68-0.538l-1.767,6.226c-3.856,0.056-7.589,0.711-11.107,1.877
		l-3.812-5.247l-5.188,2.376l1.584,6.271c-3.24,1.943-6.165,4.364-8.678,7.182l-5.927-2.64l-3.304,4.649l4.502,4.64
		c-1.805,3.238-3.146,6.782-3.924,10.56l-6.452,0.678l-0.535,5.678l6.223,1.769c0.057,3.854,0.711,7.59,1.877,11.107l-5.247,3.81
		l2.375,5.188l6.274-1.582c1.94,3.235,4.362,6.164,7.18,8.676l-2.641,5.928l4.649,3.306l4.639-4.505
		c3.235,1.802,6.775,3.142,10.546,3.919l0.57,6.444l5.681,0.538l1.873-6.211c3.857-0.056,7.591-0.708,11.108-1.873l3.712,5.292
		l5.189-2.374l-1.484-6.317c3.238-1.941,6.166-4.361,8.679-7.177l5.872,2.727l3.3-4.648l-4.44-4.726
		c1.806-3.237,3.146-6.782,3.925-10.558L239.107,207.911z M193.273,232.17c-17.255-1.632-29.919-16.94-28.289-34.195
		c1.633-17.253,16.943-29.917,34.192-28.284c17.256,1.631,29.917,16.938,28.287,34.191
		C225.831,221.136,210.524,233.801,193.273,232.17z"/>
	<path id="XMLID_789_" fill="#FFFFFF" d="M269.711,343.981l0.318-3.373l-3.688-1.113c-0.033-2.289-0.421-4.507-1.113-6.597
		l3.146-2.205l-1.412-3.08l-3.751,0.881c-1.151-1.924-2.589-3.662-4.262-5.155l1.618-3.482l-2.762-1.963L255,320.529
		c-1.928-1.073-4.032-1.87-6.279-2.333l-0.402-3.832l-3.373-0.318l-1.05,3.696c-2.29,0.033-4.507,0.423-6.596,1.115l-2.263-3.117
		l-3.082,1.412l0.941,3.724c-1.924,1.155-3.661,2.592-5.153,4.267l-3.522-1.569l-1.962,2.761l2.675,2.757
		c-1.072,1.923-1.868,4.028-2.33,6.271l-3.833,0.403l-0.317,3.371l3.695,1.051c0.034,2.289,0.423,4.507,1.115,6.597l-3.117,2.263
		l1.412,3.081l3.726-0.941c1.152,1.924,2.591,3.662,4.264,5.154l-1.568,3.521l2.761,1.964l2.755-2.677
		c1.921,1.069,4.024,1.865,6.263,2.326l0.338,3.827l3.373,0.319l1.113-3.688c2.29-0.033,4.508-0.421,6.597-1.11l2.205,3.142
		l3.082-1.408l-0.883-3.753c1.924-1.15,3.662-2.59,5.155-4.262l3.485,1.621l1.961-2.761l-2.639-2.809
		c1.073-1.923,1.869-4.026,2.332-6.271L269.711,343.981z M242.492,358.389c-10.248-0.971-17.768-10.061-16.8-20.309
		c0.97-10.245,10.063-17.767,20.307-16.795c10.248,0.968,17.768,10.059,16.798,20.305S252.735,359.356,242.492,358.389z"/>
	<g id="XMLID_778_">
		<path id="XMLID_784_" fill="#FFFFFF" d="M262.177,128.853l0.151-2.36l-3.813-1.042c-0.014-0.732-0.06-1.467-0.141-2.208
			c-0.083-0.74-0.197-1.469-0.344-2.185l3.486-1.873l-0.664-2.271l-3.936,0.326c-0.533-1.394-1.193-2.718-1.961-3.965l2.634-2.949
			l-1.399-1.906l-3.59,1.652c-0.972-1.113-2.043-2.135-3.196-3.051l1.467-3.677l-1.968-1.313l-2.809,2.78
			c-1.285-0.713-2.639-1.31-4.045-1.778l0.12-3.952l-2.3-0.56l-1.686,3.569c-1.437-0.224-2.912-0.323-4.41-0.279l-1.213-3.763
			l-2.351,0.259l-0.389,3.939c-1.472,0.286-2.891,0.702-4.243,1.238l-2.426-3.118l-2.122,1.048l0.981,3.831
			c-1.271,0.765-2.463,1.644-3.562,2.619l-3.346-2.1l-1.635,1.709l2.234,3.27c-0.926,1.145-1.747,2.375-2.451,3.675l-3.866-0.829
			l-0.951,2.164l3.215,2.305c-0.477,1.384-0.831,2.821-1.048,4.296l-3.912,0.541l-0.153,2.36l3.815,1.067
			c0.012,0.732,0.058,1.467,0.139,2.209c0.081,0.74,0.199,1.469,0.345,2.185l-3.495,1.848l0.664,2.27l3.941-0.301
			c0.535,1.394,1.194,2.718,1.961,3.965l-2.649,2.93l1.4,1.906l3.606-1.633c0.969,1.115,2.042,2.135,3.194,3.051l-1.488,3.665
			l1.966,1.313l2.83-2.769c1.286,0.713,2.641,1.311,4.048,1.78l-0.145,3.947l2.298,0.56l1.71-3.566
			c1.438,0.229,2.914,0.326,4.412,0.283l1.238,3.761l2.353-0.26l0.362-3.938c1.472-0.286,2.89-0.702,4.243-1.238l2.449,3.107
			l2.119-1.049l-1.004-3.82c1.271-0.764,2.465-1.643,3.563-2.619l3.364,2.084l1.635-1.711l-2.254-3.25
			c0.927-1.145,1.75-2.376,2.454-3.676l3.874,0.807l0.95-2.166l-3.224-2.281c0.478-1.382,0.83-2.821,1.048-4.296L262.177,128.853z
			 M236.343,143.174c-9.544,1.054-18.14-5.829-19.192-15.376c-1.058-9.545,5.83-18.14,15.375-19.194
			c9.546-1.056,18.14,5.829,19.196,15.376C252.774,133.527,245.89,142.118,236.343,143.174z"/>
		<path id="XMLID_779_" fill="#FFFFFF" d="M232.907,112.069c-7.63,0.843-13.134,7.714-12.292,15.344
			c0.842,7.633,7.712,13.137,15.345,12.294c7.633-0.844,13.137-7.711,12.292-15.345C247.411,116.73,240.54,111.227,232.907,112.069z
			 M235.576,136.219c-5.708,0.63-10.842-3.483-11.472-9.188c-0.633-5.707,3.483-10.844,9.189-11.472
			c5.706-0.632,10.841,3.483,11.472,9.189C245.396,130.453,241.281,135.588,235.576,136.219z"/>
	</g>
	<g id="XMLID_769_">
		<path id="XMLID_773_" fill="#FFFFFF" d="M424.654,279.82l0.285-1.623l-2.561-1.014c0.047-0.508,0.072-1.021,0.072-1.537
			c0-0.521-0.025-1.033-0.072-1.541l2.559-1.029l-0.287-1.623l-2.748-0.074c-0.264-1.007-0.619-1.975-1.055-2.896l2.049-1.84
			l-0.824-1.427l-2.611,0.869c-0.588-0.847-1.25-1.634-1.979-2.356l1.299-2.435l-1.264-1.06l-2.156,1.711
			c-0.836-0.592-1.729-1.108-2.666-1.541l0.385-2.728l-1.547-0.563l-1.439,2.344c-0.979-0.266-1.992-0.447-3.033-0.531l-0.555-2.699
			h-1.646l-0.568,2.699c-1.043,0.084-2.057,0.266-3.033,0.531l-1.441-2.344l-1.547,0.563l0.385,2.728
			c-0.938,0.434-1.83,0.951-2.664,1.541l-2.158-1.711l-1.262,1.06l1.299,2.435c-0.729,0.723-1.393,1.512-1.98,2.356l-2.611-0.869
			l-0.824,1.427l2.049,1.842c-0.436,0.922-0.789,1.89-1.055,2.896l-2.748,0.074l-0.287,1.622l2.561,1.029
			c-0.049,0.508-0.072,1.021-0.072,1.541c0,0.519,0.023,1.03,0.072,1.539l-2.563,1.012l0.285,1.623l2.752,0.093
			c0.266,1.006,0.619,1.974,1.055,2.896l-2.059,1.826l0.824,1.426l2.621-0.854c0.588,0.848,1.252,1.635,1.98,2.356l-1.313,2.421
			l1.262,1.063l2.17-1.699c0.836,0.592,1.729,1.107,2.666,1.541l-0.402,2.721l1.547,0.564l1.459-2.338
			c0.979,0.268,1.992,0.445,3.033,0.531l0.57,2.697h1.646l0.555-2.697c1.041-0.086,2.055-0.266,3.031-0.531l1.457,2.338l1.549-0.564
			l-0.402-2.721c0.938-0.434,1.83-0.949,2.666-1.541l2.17,1.699l1.262-1.063l-1.311-2.421c0.729-0.723,1.393-1.51,1.979-2.356
			l2.621,0.854l0.824-1.426l-2.057-1.826c0.434-0.922,0.789-1.89,1.053-2.896L424.654,279.82z M405.674,287.76
			c-6.689,0-12.113-5.424-12.113-12.113s5.424-12.115,12.113-12.115s12.113,5.425,12.113,12.115
			C417.787,282.336,412.363,287.76,405.674,287.76z"/>
	</g>
	<g id="XMLID_762_">
		<path id="XMLID_766_" fill="#FFFFFF" d="M96.832,262.793l0.287-1.622l-2.561-1.013c0.046-0.508,0.071-1.021,0.071-1.54
			s-0.025-1.031-0.071-1.539l2.558-1.03l-0.287-1.623l-2.749-0.076c-0.263-1.004-0.618-1.971-1.054-2.895l2.049-1.841l-0.824-1.426
			l-2.611,0.871c-0.589-0.846-1.25-1.635-1.979-2.357l1.297-2.434l-1.263-1.059l-2.156,1.71c-0.835-0.592-1.727-1.108-2.666-1.542
			l0.386-2.728l-1.549-0.563l-1.44,2.343c-0.978-0.267-1.992-0.447-3.032-0.532l-0.554-2.697h-1.647l-0.57,2.697
			c-1.042,0.085-2.056,0.266-3.035,0.532l-1.44-2.343l-1.547,0.563l0.387,2.728c-0.939,0.433-1.831,0.951-2.667,1.542l-2.156-1.711
			l-1.263,1.059l1.298,2.434c-0.729,0.723-1.392,1.512-1.979,2.356l-2.612-0.87l-0.823,1.426l2.049,1.842
			c-0.437,0.922-0.792,1.889-1.054,2.893l-2.75,0.076l-0.286,1.623l2.559,1.03c-0.046,0.507-0.071,1.021-0.071,1.539
			s0.025,1.032,0.071,1.54l-2.562,1.013l0.286,1.622l2.753,0.094c0.263,1.006,0.618,1.973,1.053,2.896l-2.057,1.825l0.823,1.428
			l2.622-0.855c0.587,0.846,1.25,1.635,1.979,2.356l-1.312,2.424l1.262,1.06l2.171-1.699c0.836,0.593,1.727,1.107,2.667,1.541
			l-0.403,2.721l1.547,0.564l1.457-2.338c0.979,0.267,1.993,0.445,3.035,0.532l0.57,2.696h1.647l0.554-2.696
			c1.041-0.087,2.054-0.267,3.033-0.532l1.457,2.338l1.548-0.564l-0.403-2.721c0.939-0.434,1.831-0.948,2.666-1.541l2.17,1.699
			l1.262-1.06l-1.311-2.424c0.729-0.724,1.392-1.511,1.979-2.356l2.62,0.855l0.825-1.428l-2.058-1.825
			c0.436-0.923,0.791-1.89,1.053-2.896L96.832,262.793z M77.852,270.732c-6.691,0-12.113-5.424-12.113-12.114
			c0-6.688,5.422-12.112,12.113-12.112c6.69,0,12.112,5.424,12.112,12.112C89.964,265.311,84.542,270.732,77.852,270.732z"/>
	</g>
</g>
</svg>
