<?xml version="1.0" encoding="utf-8"?>
<!-- Generator: Adobe Illustrator 16.0.0, SVG Export Plug-In . SVG Version: 6.00 Build 0)  -->
<!DOCTYPE svg PUBLIC "-//W3C//DTD SVG 1.1//EN" "http://www.w3.org/Graphics/SVG/1.1/DTD/svg11.dtd">
<svg version="1.1" id="图层_1" xmlns="http://www.w3.org/2000/svg" xmlns:xlink="http://www.w3.org/1999/xlink" x="0px" y="0px"
	 width="250px" height="250px" viewBox="0 0 250 250" enable-background="new 0 0 250 250" xml:space="preserve">
<g id="XMLID_3902_">
	<path id="XMLID_3903_" fill="#FFFFFF" d="M122.572,238.608l-16.1-1.523l-1.49-16.883c-9.333-1.977-18.297-5.309-26.666-9.904
		l-12.155,11.8l-13.176-9.37l6.918-15.53c-7.085-6.388-13.191-13.764-18.161-21.942l-16.438,4.145l-6.732-14.702l13.746-9.983
		c-2.957-9.088-4.553-18.532-4.75-28.092l-16.306-4.633l1.522-16.093l16.901-1.777c1.983-9.353,5.319-18.33,9.922-26.705
		l-11.797-12.16l9.364-13.178l15.531,6.918c6.401-7.092,13.779-13.199,21.948-18.163l-4.15-16.434l14.702-6.733l9.988,13.745
		c9.09-2.956,18.536-4.552,28.091-4.748l4.628-16.31l16.098,1.525l1.774,16.905c9.36,1.983,18.354,5.326,26.751,9.944l12.374-11.634
		l13.191,9.366l-7.152,15.374c7.092,6.398,13.191,13.779,18.151,21.951l16.548-3.879l6.74,14.696l-13.874,9.731
		c2.948,9.075,4.54,18.519,4.735,28.094l16.271,4.911l-1.52,16.098l-16.895,1.492c-1.987,9.363-5.326,18.343-9.927,26.705
		l11.634,12.381l-9.355,13.177l-15.385-7.148c-6.398,7.084-13.779,13.188-21.95,18.152l3.885,16.551l-14.707,6.724l-9.721-13.861
		c-9.098,2.949-18.544,4.539-28.102,4.73L122.572,238.608z M107.911,235.659l13.541,1.281l4.866-16.141l0.568-0.01
		c9.785-0.141,19.46-1.771,28.755-4.843l0.55-0.181l9.644,13.747l12.367-5.657l-3.854-16.415l0.487-0.294
		c8.397-5.032,15.954-11.281,22.466-18.575l0.382-0.43l15.257,7.087l7.867-11.084l-11.538-12.28l0.276-0.496
		c4.76-8.531,8.178-17.729,10.158-27.325l0.114-0.567l16.757-1.479l1.276-13.54l-16.138-4.872l-0.007-0.569
		c-0.146-9.803-1.777-19.477-4.849-28.748l-0.182-0.549l13.757-9.65l-5.669-12.361l-16.411,3.847l-0.294-0.486
		c-5.028-8.396-11.277-15.952-18.573-22.461l-0.435-0.384l7.094-15.244l-11.095-7.88l-12.274,11.538l-0.498-0.278
		c-8.568-4.774-17.775-8.197-27.363-10.17l-0.558-0.117l-1.761-16.766l-13.537-1.284l-4.592,16.178l-0.578,0.009
		c-9.786,0.143-19.458,1.776-28.748,4.856L94.6,33.243l-9.902-13.632L72.33,25.273l4.117,16.298l-0.498,0.295
		C67.556,46.9,59.999,53.156,53.487,60.455l-0.378,0.426l-15.402-6.864l-7.878,11.084L41.53,77.158l-0.282,0.506
		c-4.763,8.547-8.178,17.739-10.155,27.327l-0.115,0.558l-16.764,1.761l-1.279,13.537l16.171,4.594l0.009,0.58
		c0.144,9.786,1.779,19.458,4.859,28.744l0.178,0.542l-13.634,9.901l5.663,12.366l16.301-4.112l0.298,0.496
		c5.039,8.403,11.292,15.96,18.584,22.457l0.423,0.378l-6.864,15.404l11.084,7.883l12.055-11.706l0.506,0.282
		c8.543,4.76,17.726,8.169,27.294,10.14l0.566,0.117L107.911,235.659z M125.502,207.156c-2.608,0-5.256-0.125-7.872-0.373
		c-45.368-4.292-78.792-44.695-74.508-90.065c1.95-20.608,11.473-39.604,26.81-53.483c15.24-13.791,34.903-21.386,55.365-21.386
		c2.614,0,5.27,0.125,7.885,0.374c21.98,2.076,41.836,12.589,55.906,29.597s20.676,38.48,18.6,60.458
		c-1.953,20.612-11.476,39.608-26.812,53.49C165.634,199.559,145.971,207.156,125.502,207.156z M125.297,43.403
		c-41.998,0-76.66,31.582-80.626,73.46c-4.203,44.516,28.591,84.159,73.106,88.368c2.567,0.244,5.165,0.367,7.726,0.367
		c42.004,0,76.668-31.584,80.634-73.468c2.041-21.566-4.441-42.631-18.247-59.322c-13.806-16.686-33.285-26.999-54.854-29.036
		C130.466,43.527,127.864,43.403,125.297,43.403z"/>
</g>
</svg>
